<svg xmlns="http://www.w3.org/2000/svg" viewBox="0 0 131.21 148.35"><defs><style>.cls-1{fill:#1a1a1a;}.cls-2{fill:#444;}.cls-3{fill:#1d1d1d;}.cls-4{fill:#1c1c1c;}.cls-5{fill:#fefefe;}</style></defs><g id="Layer_2" data-name="Layer 2"><g id="Layer_1-2" data-name="Layer 1"><path class="cls-1" d="M67.92,148.35q-10.61-3-21.22-6.06c-3.59-1-7.23-1.9-10.8-3-4.45-1.39-7.62,1.4-11.12,3.16-.7.35-.39,1.2-.45,1.83-.17,1.76-1,2.74-2.89,2.69-6.24-.18-12.49-.33-18.73-.53-2.37-.07-2.77-1.63-2.7-3.6.34-11.12.64-22.24,1-33.35.07-2.32.08-4.65.21-7,.16-2.67.93-3.34,3.6-3.27L21,99.7c4.11.12,4.44.46,4.39,4.47v2A39.43,39.43,0,0,1,36.24,103a31,31,0,0,1,18.59,3.44,25.25,25.25,0,0,0,12,3c5.08.07,10.16.3,15.24.42a15,15,0,0,1,12.47,6.64c.86,1.23,1.47,1.32,2.75.7q8.85-4.29,17.81-8.38A12.24,12.24,0,0,1,130.32,113c1.38,2,1.21,3.24-.84,4.56-14.16,9.16-28.31,18.34-42.55,27.39a20.43,20.43,0,0,1-9.92,3c-.81.48-1.81-.16-2.59.44Z"/><path class="cls-2" d="M74.42,148.35c.75-.82,1.68-.55,2.59-.44a.62.62,0,0,0-.1.44Z"/><path class="cls-1" d="M102.54,67.67A35.38,35.38,0,1,1,67.18,32.36,35.35,35.35,0,0,1,102.54,67.67Z"/><path class="cls-1" d="M69.56,13.88c0,3.64,0,7.28,0,10.92,0,1.68-.45,3.07-2.41,3.06s-2.4-1.39-2.4-3.07q0-10.92,0-21.85c0-1.72.62-3,2.54-2.94s2.27,1.37,2.26,3C69.55,6.59,69.56,10.24,69.56,13.88Z"/><path class="cls-3" d="M51.33,20.08c0,1.65,0,3.31,0,5s-.68,2.81-2.46,2.81-2.46-1.12-2.46-2.77q0-5.1,0-10.19c0-1.55.69-2.6,2.3-2.68s2.55,1,2.61,2.64S51.33,18.34,51.33,20.08Z"/><path class="cls-4" d="M87.92,20.13c0,1.74,0,3.48,0,5.22a2.29,2.29,0,0,1-2.46,2.52,2.23,2.23,0,0,1-2.39-2.34q-.15-5.48,0-10.93a2.44,2.44,0,0,1,4.87.07C88,16.49,87.92,18.31,87.92,20.13Z"/><path class="cls-5" d="M25.1,136.61c0-7.75,0-15.38,0-23,0-1.47.84-2,1.9-2.6,8.11-4.28,16.46-4.8,24.67-.67a36,36,0,0,0,16.77,4c4.41,0,8.83.12,13.24.29A10.67,10.67,0,0,1,91.56,121c.76,1.6.54,2.16-1.41,2.09-7.57-.28-15.15-.43-22.72-.62a8.79,8.79,0,0,0-2,.05,2.27,2.27,0,0,0-2,2.24A2.18,2.18,0,0,0,65,127.07a6.35,6.35,0,0,0,2,.29q13.36.35,26.72.66c3.06.07,3.83-.6,3.6-3.6A2.39,2.39,0,0,1,99,121.66c5.81-2.66,11.59-5.41,17.36-8.18a7.7,7.7,0,0,1,6.73-.33c.64.28,1.6.44,1.66,1.28s-.88.91-1.4,1.25q-14.55,9.41-29.14,18.75-4,2.55-8,5.15c-6.4,4.19-13.37,4.82-20.58,2.92-9.4-2.48-18.73-5.21-28.09-7.84a13.75,13.75,0,0,0-10.64,1C26.28,136.08,25.54,136.4,25.1,136.61Z"/><path class="cls-5" d="M5.42,106.49a2.14,2.14,0,0,1,2.51-2.32c3.56.21,7.14.3,10.71.33,1.35,0,1.89.3,1.84,1.79q-.57,17.13-1,34.28c0,1.24-.42,1.52-1.59,1.47-3.74-.15-7.48-.26-11.22-.24a2.11,2.11,0,0,1-2.27-2.31c.06-5.63.59-10.9.59-16.53"/><path class="cls-5" d="M67.15,37.26A30.4,30.4,0,1,1,36.59,67.61,30.49,30.49,0,0,1,67.15,37.26Z"/><path class="cls-1" d="M61,62.2c2.06,0,3.86.08,5.66,0s1.87.8,1.88,2.16-.32,2-1.81,2c-1.82-.09-3.66,0-5.49,0-.73,0-1.33,0-1.27,1s.64.81,1.23.81c1.83,0,3.66.08,5.49,0s1.83.87,1.85,2.2-.38,2-1.84,1.94-3,0-4.49,0-1.47.5-.89,1.61C62.68,76.45,65,77.5,67.8,77.7a14.47,14.47,0,0,0,5.89-.81c2.87-1,2.92,1.37,3.62,2.84.91,1.9-.75,2.25-2,2.67-8,2.79-17.71.31-20.43-9-.47-1.59-1.61-1.2-2.59-1.14-1.57.09-2-.58-2-2s.35-2.22,2-2.1c.65,0,1.62.37,1.66-.86s-.92-1-1.59-.94c-1.78.19-2-.73-2-2.23,0-1.66.78-2,2.16-1.85a2.37,2.37,0,0,0,2.93-1.78C58.9,51.64,68.83,50,76.24,53.1c1.28.53,1.66,1.42,1,2.55s-.44,3.46-3,2.77-5.31-1.36-8.11-.71A6.88,6.88,0,0,0,61,62.2Z"/></g></g></svg>