<svg xmlns="http://www.w3.org/2000/svg" viewBox="0 0 107.73 123.12"><g id="Layer_2" data-name="Layer 2"><g id="Layer_1-2" data-name="Layer 1"><path d="M89.23.38C91,3,90.35,5.94,90.5,8.75c.1,1.78.62,2.23,2.3,2.13,2.32-.15,4.65,0,7-.06,1.94-.06,2.65.81,2.67,2.68.12,14.14-5.53,25.18-17.58,32.76a7,7,0,0,0-2.5,2.64c-4.64,8.39-11,15-20.24,18.15a1.77,1.77,0,0,0-1.35,2c0,6.06,0,12.11,0,18.17,0,1.33.43,1.68,1.69,1.65,2.66-.08,5.32,0,8,0,1.82,0,2.55.73,2.5,2.53-.08,2.32,0,4.65,0,7,0,1.26.31,1.78,1.65,1.71,2-.1,4,0,6,0s2.85.75,2.81,2.8c-.08,4.65.05,9.3-.06,13.94,0,1.7.37,2.27,2.17,2.24,6.14-.11,12.28,0,18.43,0a9.33,9.33,0,0,1,2,.1,1.78,1.78,0,0,1,1.52,2,1.66,1.66,0,0,1-1.56,1.65,15.2,15.2,0,0,1-2.24.07H2.94c-1.36,0-2.6-.24-2.56-1.95s1.33-1.85,2.65-1.85c6.31,0,12.62-.06,18.93,0,1.6,0,2.13-.37,2.08-2-.12-4.39,0-8.79,0-13.19,0-3.31.16-3.45,3.57-3.46,1.74,0,3.49-.08,5.23,0,1.33.08,1.68-.42,1.63-1.69-.09-2.4,0-4.81,0-7.22,0-1.69.75-2.42,2.4-2.4,2.74,0,5.48,0,8.21,0,1.2,0,1.58-.35,1.57-1.54q-.08-9.09,0-18.17a2,2,0,0,0-1.52-2.16C36.28,64,30.14,57.8,25.51,49.94a10.9,10.9,0,0,0-3.66-3.86C9.83,38.35,4.54,27.12,5,13c0-1.62.89-2.18,2.38-2.16,2.66,0,5.32-.06,8,0,1.32,0,1.72-.4,1.69-1.7-.05-1.81.12-3.64.17-5.46A5,5,0,0,1,18.49.38H19c.64.8,1.54.46,2.32.46q32.55,0,65.12,0c.77,0,1.67.37,2.3-.46ZM53.94,4.25q-15.45,0-30.88,0c-1,0-2.12-.5-2.25,1.35-.9,12.73,0,25.23,5.24,37.05,4.35,9.79,10.78,17.65,21.4,21.21,2.5.85,3.34,2.75,3.34,5.22,0,5.23,0,10.45,0,15.68,0,4.1,0,4,4,4.13,2,.07,2.5-.6,2.46-2.52-.12-6,0-11.94-.05-17.92a4.23,4.23,0,0,1,3.08-4.53c11-3.64,17.54-11.8,21.87-22C87,30.58,87.69,18.65,87,6.52c-.11-1.79-.5-2.34-2.38-2.32C74.36,4.31,64.15,4.25,53.94,4.25Zm0,114.69c7.79,0,15.59-.09,23.38,0,2.16.05,2.65-.63,2.51-2.62-.18-2.39,0-4.81,0-7.21,0-5.3,0-5.3-5.19-5.3-14.68,0-29.35,0-44,0-2.13,0-2.63.59-2.52,2.6a78.24,78.24,0,0,1,0,9.44c-.16,2.39.38,3.23,3,3.16C38.67,118.8,46.3,118.94,53.93,118.94Zm-.07-18.64h10c5.55,0,5.47,0,5.49-5.63,0-1.75-.61-2-2.14-2-7.72.06-15.44,0-23.16,0-5.91,0-5.86,0-5.72,5.88,0,1.46.52,1.8,1.88,1.78C44.73,100.25,49.3,100.3,53.86,100.3ZM86.67,40.09a1.56,1.56,0,0,0,1.66-.59A31.34,31.34,0,0,0,98.6,20.75c1.08-6.24,1-6.25-5.32-6.2a2.79,2.79,0,0,1-.5,0c-1.57-.24-1.94.52-2,2,0,2.31-.19,4.63-.41,6.93A69.17,69.17,0,0,1,86.67,40.09ZM21.28,41c-.46-1.53-.74-2.47-1-3.4A70.4,70.4,0,0,1,17,20.06c-.3-5.53-.26-5.38-5.72-5.58-2.54-.1-2.79.89-2.59,3A32.62,32.62,0,0,0,21.28,41Z"/><path d="M104.48,123.12H2.94a3.18,3.18,0,0,1-2.38-.68A2.18,2.18,0,0,1,0,120.78c0-2.22,2-2.22,3-2.22H8.19c4.52,0,9.19,0,13.78,0,.77,0,1.19-.08,1.41-.31a1.85,1.85,0,0,0,.29-1.35c-.09-3.25-.07-6.56-.05-9.77,0-1.14,0-2.28,0-3.43,0-3.51.34-3.83,3.95-3.84h1.47c1.24,0,2.52,0,3.78,0a1.4,1.4,0,0,0,1-.2,1.54,1.54,0,0,0,.22-1.1c0-1.35,0-2.72,0-4,0-1.06,0-2.12,0-3.18a2.42,2.42,0,0,1,2.78-2.79c1,0,2.11,0,3.17,0,1.66,0,3.37,0,5.05,0a1.31,1.31,0,0,0,1-.2,1.37,1.37,0,0,0,.22-1c-.05-6.27-.05-12.38,0-18.17a1.6,1.6,0,0,0-1.28-1.8c-8.13-2.92-14.59-8.6-19.75-17.37a10.69,10.69,0,0,0-3.54-3.74C9.88,38.82,4.15,27.58,4.6,13c.06-1.7.94-2.53,2.71-2.53h3.08c1.62,0,3.3,0,4.95,0a1.43,1.43,0,0,0,1.07-.22,1.46,1.46,0,0,0,.23-1.08c0-1.18,0-2.37.09-3.51,0-.66.07-1.32.08-2A5.47,5.47,0,0,1,18.21.12L18.33,0h.84l.11.14c.35.44.78.42,1.45.36l.57,0h0q32.55,0,65.12,0h0a4,4,0,0,1,.59,0c.66.07,1.07.09,1.41-.36L88.54,0h.89l.11.17c1.37,2,1.35,4.31,1.32,6.5,0,.68,0,1.38,0,2.06a2.17,2.17,0,0,0,.44,1.52,2,2,0,0,0,1.46.25c1.3-.08,2.62-.06,3.9,0,1,0,2.06,0,3.08,0a3,3,0,0,1,2.27.66,3.14,3.14,0,0,1,.78,2.39C102.94,28,97,39.08,85.06,46.58a6.54,6.54,0,0,0-2.37,2.5C77.5,58.46,70.81,64.46,62.24,67.4c-.85.3-1.1.68-1.1,1.66,0,5.79.06,12,0,18.17a1.49,1.49,0,0,0,.24,1.06,1.52,1.52,0,0,0,1.07.21c1.37,0,2.76,0,4.1,0s2.58,0,3.87,0a2.45,2.45,0,0,1,2.88,2.91c0,1.13,0,2.29,0,3.4s0,2.38,0,3.57a1.56,1.56,0,0,0,.23,1.11,1.38,1.38,0,0,0,1,.21c1.1,0,2.22,0,3.3,0,.9,0,1.79,0,2.69,0a3.19,3.19,0,0,1,2.44.72,3.25,3.25,0,0,1,.76,2.47c0,2.16,0,4.36,0,6.48,0,2.45,0,5-.05,7.46,0,.83.08,1.28.32,1.53a2.09,2.09,0,0,0,1.47.32c4.58-.08,9.24-.06,13.75,0h5.07a7.91,7.91,0,0,1,1.68.11,2.15,2.15,0,0,1,1.81,2.36,2,2,0,0,1-1.88,2A8.93,8.93,0,0,1,104.48,123.12Zm-.92-.76H104a10.63,10.63,0,0,0,1.71-.07A1.28,1.28,0,0,0,107,121a1.42,1.42,0,0,0-1.22-1.59,6.74,6.74,0,0,0-1.51-.09H99.16c-4.5,0-9.15,0-13.73,0a2.55,2.55,0,0,1-2-.55,2.76,2.76,0,0,1-.54-2.07c.07-2.48.06-5,.05-7.43,0-2.13,0-4.34,0-6.5a2.53,2.53,0,0,0-.54-1.92,2.48,2.48,0,0,0-1.89-.51c-.9,0-1.81,0-2.72,0-1.06,0-2.17,0-3.25,0A2,2,0,0,1,73,100a2.19,2.19,0,0,1-.46-1.67c0-1.18,0-2.38,0-3.54s0-2.29,0-3.43a1.73,1.73,0,0,0-2.11-2.14c-1.3,0-2.62,0-3.9,0s-2.71,0-4.07,0a2.12,2.12,0,0,1-1.61-.43,2,2,0,0,1-.47-1.6c.07-6.16,0-12.37,0-18.16A2.14,2.14,0,0,1,62,66.7c8.39-2.89,14.94-8.77,20-18A7.29,7.29,0,0,1,84.66,46c11.67-7.35,17.53-18.27,17.4-32.44a2.49,2.49,0,0,0-.55-1.86,2.31,2.31,0,0,0-1.73-.45c-1,0-2.09,0-3.11,0-1.26,0-2.57,0-3.85,0a2.61,2.61,0,0,1-2-.44,2.72,2.72,0,0,1-.69-2c0-.7,0-1.42,0-2.11,0-2.11,0-4.1-1.09-5.91H88.9a2.06,2.06,0,0,1-2,.5,4.56,4.56,0,0,0-.51,0h0q-32.57,0-65.12,0h0l-.5,0a2.18,2.18,0,0,1-2-.5h-.16a4.63,4.63,0,0,0-1.1,3c0,.66,0,1.33-.08,2-.06,1.14-.12,2.31-.09,3.45a2,2,0,0,1-.45,1.64,2.06,2.06,0,0,1-1.62.44c-1.64-.05-3.31,0-4.93,0h-3c-1.45,0-2,.49-2,1.8-.45,14.32,5.17,25.34,16.7,32.75a11.35,11.35,0,0,1,3.79,4c5.07,8.61,11.4,14.19,19.35,17A2.33,2.33,0,0,1,47,69.31c-.06,5.78-.06,11.89,0,18.15a1.62,1.62,0,0,1-2,1.93c-1.67,0-3.38,0-5,0q-1.59,0-3.18,0a2.15,2.15,0,0,0-1.58.47,2.08,2.08,0,0,0-.44,1.56c0,1.06,0,2.13,0,3.2,0,1.31,0,2.67,0,4a2.19,2.19,0,0,1-.45,1.67,2,2,0,0,1-1.59.4c-1.23-.07-2.49,0-3.72,0H27.58c-3.2,0-3.2,0-3.2,3.1,0,1.14,0,2.28,0,3.43,0,3.19,0,6.5.05,9.74a2.47,2.47,0,0,1-.5,1.9,2.69,2.69,0,0,1-2,.53c-4.59-.07-9.26-.06-13.77,0H3c-1.52,0-2.25.22-2.28,1.49a1.44,1.44,0,0,0,.34,1.1,2.7,2.7,0,0,0,1.85.46Zm-72.81-3a3.29,3.29,0,0,1-2.49-.73,3.69,3.69,0,0,1-.61-2.83,75.51,75.51,0,0,0,0-9.4,3,3,0,0,1,.53-2.34,3.16,3.16,0,0,1,2.37-.66c11.11.08,22.39.07,33.31.06H74.58c5.41,0,5.57.16,5.57,5.67,0,.73,0,1.46,0,2.19,0,1.64-.06,3.34.06,5a3.12,3.12,0,0,1-.51,2.38,3,3,0,0,1-2.38.65c-5.65-.11-11.4-.09-17-.07q-6.44,0-12.87,0c-5.38,0-10.95-.06-16.42.1Zm-.27-15.21a2.46,2.46,0,0,0-1.76.42,2.49,2.49,0,0,0-.32,1.79,75,75,0,0,1,0,9.49c-.08,1.21,0,1.89.4,2.26s1,.53,2.23.5c5.48-.16,11-.13,16.44-.1q6.44,0,12.87,0c5.56,0,11.31,0,17,.07,1,0,1.54-.11,1.83-.42s.37-.85.3-1.81c-.12-1.68-.09-3.4-.06-5,0-.73,0-1.45,0-2.18,0-4.92,0-4.92-4.82-4.92H63.86c-10.92,0-22.21,0-33.31-.06Zm9.59-3.48c-1.55,0-2.12-.57-2.15-2.14v-.17c-.07-2.94-.1-4.42.71-5.25S41,92.3,44,92.3h6c5.61,0,11.41,0,17.11,0a2.72,2.72,0,0,1,2,.52,2.56,2.56,0,0,1,.54,1.88v.26c0,5.58-.19,5.74-5.87,5.74H50.11c-3.26,0-6.63,0-9.93,0ZM44,93.05c-2.74,0-4.25,0-4.85.61s-.56,2.07-.5,4.71v.17c0,1.26.35,1.43,1.49,1.41,3.32,0,6.69,0,10,0H63.82c5.1,0,5.1,0,5.12-5v-.25a1.91,1.91,0,0,0-.32-1.34c-.23-.23-.64-.3-1.45-.31-5.71,0-11.51,0-17.12,0Zm11-3.76h-.62c-3.87-.14-4-.3-4-4.49V80.12c0-3.67,0-7.35,0-11,0-2.61-1-4.15-3.08-4.86C37.75,61,30.68,54,25.7,42.82c-4.65-10.47-6.32-22.3-5.26-37.23A2,2,0,0,1,21,4.15a2.05,2.05,0,0,1,1.56-.29,1.55,1.55,0,0,0,.48,0q12.19,0,24.38,0H61.8c7.46,0,15.18,0,22.76,0,2.2,0,2.66.84,2.77,2.67.89,14.6-.61,25.57-4.84,35.57C77.54,53.74,70.31,61,60.39,64.3a3.87,3.87,0,0,0-2.82,4.17c0,2.11,0,4.23,0,6.34,0,3.79,0,7.72,0,11.57A3,3,0,0,1,57,88.71,2.66,2.66,0,0,1,55.05,89.29ZM22,4.58a.82.82,0,0,0-.54.14,1.41,1.41,0,0,0-.31.93c-1,14.8.61,26.51,5.21,36.86,4.88,11,11.81,17.88,21.17,21,2.43.81,3.61,2.64,3.6,5.57q0,5.52,0,11v4.66c0,3.62,0,3.62,3.3,3.74h.33a2.31,2.31,0,0,0,1.69-.36c.29-.29.4-.82.38-1.77-.07-3.87-.06-7.8,0-11.6q0-3.15,0-6.32c0-2.55,1.08-4.15,3.34-4.89,9.7-3.22,16.78-10.35,21.64-21.82C86,31.89,87.46,21,86.58,6.54c-.1-1.69-.38-2-2-2-7.59.08-15.31.06-22.77,0H47.43q-12.18,0-24.37,0h0l-.54,0ZM22,42l-.95-.77A33.18,33.18,0,0,1,8.31,17.51c-.11-1.26-.07-2.16.49-2.75a3.12,3.12,0,0,1,2.5-.66l.41,0c5.2.19,5.36.35,5.66,5.81V20a70.4,70.4,0,0,0,3.24,17.4c.19.61.37,1.22.61,2ZM11,14.85a2.2,2.2,0,0,0-1.61.43c-.36.38-.37,1.14-.28,2.16a32.29,32.29,0,0,0,11.5,22.42l-.06-.21c-.23-.77-.42-1.38-.61-2a71.46,71.46,0,0,1-3.27-17.59V20c-.27-4.93-.27-4.93-4.94-5.1l-.41,0ZM87.12,40.51a3.37,3.37,0,0,1-.52,0l-.43-.09.15-.41a68.5,68.5,0,0,0,3.73-16.55c.21-2.18.4-4.53.41-6.89a2.61,2.61,0,0,1,.63-2,2.12,2.12,0,0,1,1.75-.32,1.29,1.29,0,0,0,.28,0h.16c3.3,0,5,0,5.73.89s.5,2.64,0,5.75a31.77,31.77,0,0,1-10.39,19l-.14.12A1.71,1.71,0,0,1,87.12,40.51Zm5.13-25.64a1,1,0,0,0-.67.19c-.25.22-.37.68-.37,1.46,0,2.4-.21,4.76-.41,7a69.25,69.25,0,0,1-3.61,16.28,1,1,0,0,0,.73-.4l.16-.15A31,31,0,0,0,98.23,20.68c.53-3,.75-4.5.21-5.14s-2.19-.64-5.16-.62h-.13a2.91,2.91,0,0,1-.42,0A3,3,0,0,0,92.25,14.87Z"/><path d="M88.73.38c-.63.83-1.53.46-2.3.46q-32.57,0-65.12,0c-.78,0-1.68.34-2.32-.46Z"/><path d="M87.56,1.29c-.21,0-.42,0-.62,0a4.56,4.56,0,0,0-.51,0h0q-32.57,0-65.12,0h0l-.5,0A2.12,2.12,0,0,1,18.7.61L18.21,0H89.48L89,.6A1.69,1.69,0,0,1,87.56,1.29Z"/></g></g></svg>