<svg xmlns="http://www.w3.org/2000/svg" viewBox="0 0 148.59 97.81"><defs><style>.cls-1{fill:#fff;}</style></defs><g id="Layer_2" data-name="Layer 2"><g id="Layer_1-2" data-name="Layer 1"><path d="M126.09,54.19c7.46,8.81,6,15.88-3.73,19.31.25,8.1-5.83,13.19-12.73,12.44-4,10-9.92,11.38-19.41,4.36A51.23,51.23,0,0,1,86.45,95a9.07,9.07,0,0,1-12.63.41c-2.5-2.17-4.89-4.47-7.73-7.07-1.43,1.57-2.88,3-4.18,4.58-5.12,6.23-13,5.09-17.28-2.12-.21-.35-.39-.71-.58-1.06-6.77,2.62-11.86.55-15.5-7a10.14,10.14,0,0,1-11-3c-3.08-3.24-3.83-6.86-2.13-10.7A57.89,57.89,0,0,1,10.27,65,8.84,8.84,0,0,1,10,52.48c2-2.22,4.07-4.34,6.27-6.67l-12-10.29C-1,31-1.39,26,3.2,20.87c4.14-4.66,8.27-9.32,12.44-13.94S25,1.2,30.78,3.62c1.75.74,3.52,1.46,5.26,2.25a15.44,15.44,0,0,0,13.26,0c1.28-.58,2.61-1.07,3.88-1.68C59.54,1.13,65.82,1.15,72,4.68c1.11.63,2,1,3.38.16,4.86-3.1,10-3.22,15.16-.68,3.2,1.57,6.4,3.14,9.64,4.64a10.51,10.51,0,0,0,10.26-.49c3.56-2.13,7-4.38,10.59-6.54,5-3,10.37-2.11,14,2.45s7.4,9.39,11.06,14.12a10.61,10.61,0,0,1-.5,14.31C139.14,39.82,132.65,46.94,126.09,54.19ZM98,49.2c.91.82,1.71,1.52,2.49,2.24,5.67,5.24,11.31,10.52,17,15.72,2.39,2.17,4.7,1.94,6.94-.48s2.38-4.67.21-6.76c-11.77-11.39-24.05-22.17-37.81-31.16a8,8,0,0,0-8.74-.26c-1.6.87-3.1,1.94-4.71,2.79-5.24,2.74-10.76.9-14.24-4.7-2.73-4.38-1.43-9.32,3.34-12.73L69,9.17,69,8.38A60.07,60.07,0,0,0,63.1,7c-4.3-.55-7.87,1.71-11.58,3.32a20.93,20.93,0,0,1-17.61,0c-2-.88-3.93-1.8-6-2.52-2.79-1-5.58-.72-7.63,1.47-4.88,5.22-9.6,10.58-14.3,16-1.44,1.64-1.54,3.74.06,5.2,4.39,4,9,7.82,13.68,11.86,3.15-3.86,6.55-7.12,11.75-5.74,4.82,1.29,7.58,4.79,8.53,9.61,6.65.33,12.34,5.93,10.94,13.57C55.13,61,57.64,64,58.85,68c.49,1.62,1.32,2.11,2.9,2.38,5,.84,9.43,6,8.38,10.68-.82,3.69.84,5.29,3.07,7.16,1,.85,2,1.8,2.94,2.69,3,2.65,5.16,2.59,7.69-.2,2.23-2.47,2-4.66-.8-7.27-2.53-2.35-5.09-4.69-7.74-7.14,1.34-1.28,2.45-2.32,3.6-3.41,5.56,5.13,11,10.2,16.54,15.26,2.82,2.58,5,2.5,7.5-.19,2.31-2.53,2.14-4.73-.56-7.27-1.27-1.19-2.56-2.36-3.84-3.55L85.66,65.18l3.4-3.58c6.57,6.08,12.89,11.95,19.25,17.79,2.5,2.29,4.89,2.14,7.14-.3s2.34-4.75-.15-7.11c-3.2-3-6.45-6-9.68-9l-11-10.2Zm24.45,1.68c6.69-7.4,13.29-14.62,19.8-21.93a5.5,5.5,0,0,0,.1-7.32Q136.72,14.31,131,7.13c-2-2.48-4.52-2.83-7.29-1.15-3.48,2.1-6.9,4.3-10.38,6.4a15.48,15.48,0,0,1-15.44.81c-3.37-1.59-6.69-3.3-10.09-4.86a9.61,9.61,0,0,0-9.93.78C73.6,12,69.4,15,65.21,18c-2.64,1.87-3.16,3.77-1.78,6.12,1.87,3.2,4.68,4.3,7.49,2.85C72.54,26.1,74,25,75.64,24.17c4.73-2.5,9.51-2.51,13.92.51,6,4.13,12,8.37,17.68,12.91C112.42,41.71,117.23,46.31,122.41,50.88ZM25.76,78.45a10.47,10.47,0,0,0,2.64-1.6Q36.56,68.5,44.57,60c2.21-2.35,2-4.67-.29-6.93-2.5-2.4-4.75-2.45-7.13,0-5.37,5.53-10.67,11.12-16,16.67C19.66,71.26,19,73,20.07,74.92A6.26,6.26,0,0,0,25.76,78.45ZM35,47.06c-.63-2.72-1.85-4.55-4.07-5.46A4.21,4.21,0,0,0,26,42.86c-4,4.26-8.17,8.44-12.15,12.77-2.14,2.32-1.77,4.54.8,6.86,2.24,2,4.54,2.05,6.58-.05q6.15-6.31,12.18-12.74A13.47,13.47,0,0,0,35,47.06ZM54.49,70.39A6.42,6.42,0,0,0,50.67,65c-1.92-1-3.68-.34-5.15,1.22-3.55,3.73-7.16,7.4-10.67,11.15-2.17,2.31-2,4.42.37,6.72s4.77,2.5,7,.27q5.41-5.5,10.67-11.16A13.56,13.56,0,0,0,54.49,70.39Zm0,21.73a10.27,10.27,0,0,0,2.65-1.46c2.43-2.36,4.79-4.81,7-7.35,2-2.23,1.6-4.45-.88-6.7-2.22-2-4.6-2.12-6.6-.13-2.3,2.28-4.48,4.66-6.72,7-1.41,1.46-1.92,3.18-1,5A6.49,6.49,0,0,0,54.52,92.12Z"/><path class="cls-1" d="M98,49.2l-3.32,3.59,11,10.2c3.23,3,6.48,6,9.68,9,2.49,2.36,2.51,4.56.15,7.11s-4.64,2.59-7.14.3C102,73.55,95.63,67.68,89.06,61.6l-3.4,3.58L98.53,77.11c1.28,1.19,2.57,2.36,3.84,3.55,2.7,2.54,2.87,4.74.56,7.27-2.46,2.69-4.68,2.77-7.5.19-5.5-5.06-11-10.13-16.54-15.26C77.74,74,76.63,75,75.29,76.27c2.65,2.45,5.21,4.79,7.74,7.14,2.8,2.61,3,4.8.8,7.27-2.53,2.79-4.73,2.85-7.69.2-1-.89-1.93-1.84-2.94-2.69C71,86.32,69.31,84.72,70.13,81c1.05-4.71-3.41-9.84-8.38-10.68-1.58-.27-2.41-.76-2.9-2.38-1.21-4-3.72-7-7.87-8.22,1.4-7.64-4.29-13.24-10.94-13.57-.95-4.82-3.71-8.32-8.53-9.61-5.2-1.38-8.6,1.88-11.75,5.74-4.7-4-9.29-7.84-13.68-11.86C4.48,29,4.58,26.89,6,25.25c4.7-5.37,9.42-10.73,14.3-15.95C22.37,7.11,25.16,6.84,28,7.83c2,.72,4,1.64,6,2.52a20.93,20.93,0,0,0,17.61,0C55.23,8.73,58.8,6.47,63.1,7A60.07,60.07,0,0,1,69,8.38l.07.79-6.58,4.69c-4.77,3.41-6.07,8.35-3.34,12.73,3.48,5.6,9,7.44,14.24,4.7,1.61-.85,3.11-1.92,4.71-2.79a8,8,0,0,1,8.74.26c13.76,9,26,19.77,37.81,31.16,2.17,2.09,2,4.35-.21,6.76s-4.55,2.65-6.94.48c-5.71-5.2-11.35-10.48-17-15.72C99.67,50.72,98.87,50,98,49.2Z"/><path class="cls-1" d="M122.41,50.88c-5.18-4.57-10-9.17-15.17-13.29-5.7-4.54-11.66-8.78-17.68-12.91-4.41-3-9.19-3-13.92-.51-1.61.86-3.1,1.93-4.72,2.77-2.81,1.45-5.62.35-7.49-2.85-1.38-2.35-.86-4.25,1.78-6.12C69.4,15,73.6,12,77.84,9.11a9.61,9.61,0,0,1,9.93-.78c3.4,1.56,6.72,3.27,10.09,4.86a15.48,15.48,0,0,0,15.44-.81c3.48-2.1,6.9-4.3,10.38-6.4C126.45,4.3,129,4.65,131,7.13q5.75,7.17,11.34,14.5a5.5,5.5,0,0,1-.1,7.32C135.7,36.26,129.1,43.48,122.41,50.88Z"/><path class="cls-1" d="M25.76,78.45a6.26,6.26,0,0,1-5.69-3.53C19,73,19.66,71.26,21.13,69.73c5.35-5.55,10.65-11.14,16-16.67,2.38-2.46,4.63-2.41,7.13,0,2.34,2.26,2.5,4.58.29,6.93q-8,8.49-16.17,16.87A10.47,10.47,0,0,1,25.76,78.45Z"/><path class="cls-1" d="M35,47.06a13.47,13.47,0,0,1-1.61,2.64q-6,6.44-12.18,12.74c-2,2.1-4.34,2.07-6.58.05-2.57-2.32-2.94-4.54-.8-6.86C17.83,51.3,22,47.12,26,42.86A4.21,4.21,0,0,1,31,41.6C33.17,42.51,34.39,44.34,35,47.06Z"/><path class="cls-1" d="M54.49,70.39a13.56,13.56,0,0,1-1.64,2.8Q47.6,78.86,42.18,84.35c-2.19,2.23-4.53,2.08-7-.27s-2.54-4.41-.37-6.72c3.51-3.75,7.12-7.42,10.67-11.15C47,64.65,48.75,64,50.67,65A6.42,6.42,0,0,1,54.49,70.39Z"/><path class="cls-1" d="M54.52,92.12a6.49,6.49,0,0,1-5.47-3.66c-1-1.81-.45-3.53,1-5,2.24-2.33,4.42-4.71,6.72-7,2-2,4.38-1.89,6.6.13,2.48,2.25,2.85,4.47.88,6.7-2.25,2.54-4.61,5-7,7.35A10.27,10.27,0,0,1,54.52,92.12Z"/></g></g></svg>