<svg xmlns="http://www.w3.org/2000/svg" viewBox="0 0 121.95 121.84"><defs><style>.cls-1{fill:#242424;}</style></defs><g id="Layer_2" data-name="Layer 2"><g id="Layer_1-2" data-name="Layer 1"><path class="cls-1" d="M9.88,121.84c-2.33-3.18-.12-5.68,1.5-8,6.76-9.64,16.85-14,27.78-16.66,4-1,9.58,0,11.76-2.38S51.13,87,52,83c.76-3.56-.46-5.53-3-7.51s-4.81-4-7.07-6.22c-4.15-4-7.74-7.24-14.72-4.53C20.63,67.34,12,62.12,9,55.19,4,43.6,2.21,31.13.08,18.79-.4,16,1.35,14.56,4,15.74c11.61,5.13,23.37,10.13,33.32,18.2,6.59,5.34,7.84,14.92,3.08,22.48-1.7,2.69-1.15,3.81.92,5.51,4.06,3.35,8,6.9,12.35,10.74,2.63-6.15,5.22-11.94,9.24-16.89,1.25-1.54-.33-2.41-.91-3.43C54.36,39,58.27,24.71,72,17.46,86.49,9.8,102.17,5.15,117.76.32c3.39-1,4.9.58,3.87,3.92-4.77,15.42-9.5,30.89-16.9,45.31C97.67,63.29,83.48,67.51,70,60c-2.14-1.18-3.09-1-4.32.83-6.29,9.32-9.43,19.49-8.71,30.81.17,2.8,1.18,3.93,4.14,4.07a57.3,57.3,0,0,1,29,9,34.72,34.72,0,0,1,11,11.22c1.21,2,1.75,3.89.18,5.91ZM115.54,6.45c-15.46,5-30.14,9.25-43.41,17-9.38,5.47-11.37,17.13-4.88,26.92,1.49-1.58,3-3.08,4.35-4.64A185,185,0,0,1,91.29,26.29c1.22-1,2.48-2.95,4.42-.46,1.8,2.31.47,3.25-1.16,4.59C86.73,36.81,80,44.28,73.18,51.67c-2.35,2.55-1.75,3.53,1.07,4.85,8.52,4,18.93,1.79,23.72-6C106.19,37.15,110.32,22.09,115.54,6.45Zm-21,110.19C87.81,105.75,70,99.47,50.09,100.93c-13,1-24.92,4.56-34.46,15.71ZM35,55.15c4.35-7.08,3.72-13.6-1.76-17.84-8.1-6.26-17.41-10.4-27.19-15,1.8,10.38,3.54,20.06,7.05,29.3,2.3,6,7.42,8.79,13.72,8.07,3-.35,4.47-1.06,2-4.06-1.66-2-3-4.34-4.65-6.38-1.39-1.7-1.67-2.86.37-4.39s2.81-.26,3.79,1.1C30.41,48.86,32.52,51.76,35,55.15Z"/></g></g></svg>